<svg width="420" height="420" viewBox="0 0 420 420" fill="none" xmlns="http://www.w3.org/2000/svg">
<g id="ICONO CONEXUS RUGBY">
<rect width="420" height="420" fill="#181E2F"/>
<g id="Nodos">
<path id="Vector" d="M116.111 368.191C119.148 368.191 121.611 365.049 121.611 361.174C121.611 357.299 119.148 354.157 116.111 354.157C113.073 354.157 110.611 357.299 110.611 361.174C110.611 365.049 113.073 368.191 116.111 368.191Z" fill="#4FD1E5" stroke="#4FD1E5" stroke-width="3"/>
<path id="Vector_2" d="M74.1108 196.783C77.1484 196.783 79.6108 193.641 79.6108 189.766C79.6108 185.891 77.1484 182.749 74.1108 182.749C71.0733 182.749 68.6108 185.891 68.6108 189.766C68.6108 193.641 71.0733 196.783 74.1108 196.783Z" fill="#4FD1E5" stroke="#4FD1E5" stroke-width="3"/>
<path id="Vector_3" d="M29.1108 241.89C32.1484 241.89 34.6108 238.748 34.6108 234.873C34.6108 230.998 32.1484 227.857 29.1108 227.857C26.0733 227.857 23.6108 230.998 23.6108 234.873C23.6108 238.748 26.0733 241.89 29.1108 241.89Z" fill="#4FD1E5" stroke="#4FD1E5" stroke-width="3"/>
<path id="Vector_4" d="M362.111 231.866C365.148 231.866 367.611 228.725 367.611 224.849C367.611 220.974 365.148 217.833 362.111 217.833C359.073 217.833 356.611 220.974 356.611 224.849C356.611 228.725 359.073 231.866 362.111 231.866Z" fill="#4FD1E5" stroke="#4FD1E5" stroke-width="3"/>
<path id="Vector_5" d="M23.1108 202.797C26.1484 202.797 28.6108 199.655 28.6108 195.78C28.6108 191.905 26.1484 188.764 23.1108 188.764C20.0733 188.764 17.6108 191.905 17.6108 195.78C17.6108 199.655 20.0733 202.797 23.1108 202.797Z" fill="#4FD1E5" stroke="#4FD1E5" stroke-width="3"/>
<path id="Vector_6" d="M279.611 109.575C282.925 109.575 285.611 106.433 285.611 102.558C285.611 98.6831 282.925 95.5416 279.611 95.5416C276.297 95.5416 273.611 98.6831 273.611 102.558C273.611 106.433 276.297 109.575 279.611 109.575Z" fill="#4FD1E5" stroke="#4FD1E5" stroke-width="3"/>
<path id="Vector_7" d="M358.611 106.568C361.925 106.568 364.611 103.426 364.611 99.5511C364.611 95.6759 361.925 92.5344 358.611 92.5344C355.297 92.5344 352.611 95.6759 352.611 99.5511C352.611 103.426 355.297 106.568 358.611 106.568Z" fill="#4FD1E5" stroke="#4FD1E5" stroke-width="3"/>
<path id="Vector_8" d="M397.611 187.761C400.925 187.761 403.611 184.62 403.611 180.744C403.611 176.869 400.925 173.728 397.611 173.728C394.297 173.728 391.611 176.869 391.611 180.744C391.611 184.62 394.297 187.761 397.611 187.761Z" fill="#4FD1E5" stroke="#4FD1E5" stroke-width="3"/>
<path id="Vector_9" d="M410.611 209.814C413.925 209.814 416.611 206.672 416.611 202.797C416.611 198.922 413.925 195.78 410.611 195.78C407.297 195.78 404.611 198.922 404.611 202.797C404.611 206.672 407.297 209.814 410.611 209.814Z" fill="#4FD1E5" stroke="#4FD1E5" stroke-width="3"/>
<path id="Vector_10" d="M288.111 280.983C291.148 280.983 293.611 277.842 293.611 273.966C293.611 270.091 291.148 266.95 288.111 266.95C285.073 266.95 282.611 270.091 282.611 273.966C282.611 277.842 285.073 280.983 288.111 280.983Z" fill="#4FD1E5" stroke="#4FD1E5" stroke-width="3"/>
<path id="Vector_11" d="M187.111 321.079C190.148 321.079 192.611 317.937 192.611 314.062C192.611 310.187 190.148 307.045 187.111 307.045C184.073 307.045 181.611 310.187 181.611 314.062C181.611 317.937 184.073 321.079 187.111 321.079Z" fill="#4FD1E5" stroke="#4FD1E5" stroke-width="3"/>
<path id="Vector_12" d="M86.1108 332.105C89.1484 332.105 91.6108 328.963 91.6108 325.088C91.6108 321.213 89.1484 318.071 86.1108 318.071C83.0733 318.071 80.6108 321.213 80.6108 325.088C80.6108 328.963 83.0733 332.105 86.1108 332.105Z" fill="#4FD1E5" stroke="#4FD1E5" stroke-width="3"/>
<path id="Vector_13" d="M125.111 112.582C128.148 112.582 130.611 109.441 130.611 105.565C130.611 101.69 128.148 98.5487 125.111 98.5487C122.073 98.5487 119.611 101.69 119.611 105.565C119.611 109.441 122.073 112.582 125.111 112.582Z" fill="#4FD1E5" stroke="#4FD1E5" stroke-width="3"/>
<path id="Vector_14" d="M9.11084 302.033C12.1484 302.033 14.6108 299.116 14.6108 295.518C14.6108 291.919 12.1484 289.002 9.11084 289.002C6.07327 289.002 3.61084 291.919 3.61084 295.518C3.61084 299.116 6.07327 302.033 9.11084 302.033Z" fill="#4FD1E5" stroke="#4FD1E5" stroke-width="3"/>
<path id="Vector_15" d="M246.111 354.157C249.148 354.157 251.611 351.24 251.611 347.642C251.611 344.043 249.148 341.126 246.111 341.126C243.073 341.126 240.611 344.043 240.611 347.642C240.611 351.24 243.073 354.157 246.111 354.157Z" fill="#4FD1E5" stroke="#4FD1E5" stroke-width="3"/>
<path id="Vector_16" d="M411.111 133.632C414.148 133.632 416.611 130.491 416.611 126.616C416.611 122.74 414.148 119.599 411.111 119.599C408.073 119.599 405.611 122.74 405.611 126.616C405.611 130.491 408.073 133.632 411.111 133.632Z" fill="#4FD1E5" stroke="#4FD1E5" stroke-width="3"/>
<path id="Vector_17" d="M251.111 70.4819C254.148 70.4819 256.611 67.3404 256.611 63.4652C256.611 59.59 254.148 56.4485 251.111 56.4485C248.073 56.4485 245.611 59.59 245.611 63.4652C245.611 67.3404 248.073 70.4819 251.111 70.4819Z" fill="#4FD1E5" stroke="#4FD1E5" stroke-width="3"/>
<path id="Vector_18" d="M341.111 77.4986C344.148 77.4986 346.611 74.3571 346.611 70.4819C346.611 66.6067 344.148 63.4652 341.111 63.4652C338.073 63.4652 335.611 66.6067 335.611 70.4819C335.611 74.3571 338.073 77.4986 341.111 77.4986Z" fill="#4FD1E5" stroke="#4FD1E5" stroke-width="3"/>
<path id="Vector_19" d="M184.111 137.642C187.148 137.642 189.611 134.5 189.611 130.625C189.611 126.75 187.148 123.608 184.111 123.608C181.073 123.608 178.611 126.75 178.611 130.625C178.611 134.5 181.073 137.642 184.111 137.642Z" fill="#4FD1E5" stroke="#4FD1E5" stroke-width="3"/>
<path id="Vector_20" d="M349.111 295.017C352.148 295.017 354.611 291.875 354.611 288C354.611 284.125 352.148 280.983 349.111 280.983C346.073 280.983 343.611 284.125 343.611 288C343.611 291.875 346.073 295.017 349.111 295.017Z" fill="#4FD1E5" stroke="#4FD1E5" stroke-width="3"/>
</g>
<g id="Lineas" opacity="0.6">
<path id="Vector_21" d="M85.1108 326.091L245.111 347.642" stroke="#4FD1E5" stroke-width="1.5"/>
<path id="Vector_22" d="M114.611 361.174L85.1108 326.091" stroke="#4FD1E5" stroke-width="1.5"/>
<path id="Vector_23" d="M250.611 63.4653L187.111 131.126" stroke="#4FD1E5" stroke-width="1.5"/>
<path id="Vector_24" d="M250.611 63.4653L280.111 102.057" stroke="#4FD1E5" stroke-width="1.5"/>
<path id="Vector_25" d="M124.611 106.067L187.111 131.126" stroke="#4FD1E5" stroke-width="1.5"/>
<path id="Vector_26" d="M114.611 361.174L187.111 313.561" stroke="#4FD1E5" stroke-width="1.5"/>
<path id="Vector_27" d="M245.111 348.143L187.111 313.561" stroke="#4FD1E5" stroke-width="1.5"/>
<path id="Vector_28" d="M124.611 106.067L73.6108 189.766" stroke="#4FD1E5" stroke-width="1.5"/>
<path id="Vector_29" d="M23.1108 196.282L73.6108 189.766" stroke="#4FD1E5" stroke-width="1.5"/>
<path id="Vector_30" d="M29.1108 235.375L23.6108 196.783" stroke="#4FD1E5" stroke-width="1.5"/>
<path id="Vector_31" d="M288.611 273.465L245.611 347.642" stroke="#4FD1E5" stroke-width="1.5"/>
<path id="Vector_32" d="M361.111 224.849L245.611 347.642" stroke="#4FD1E5" stroke-width="1.5"/>
<path id="Vector_33" d="M361.111 224.849L349.111 289.002" stroke="#4FD1E5" stroke-width="1.5"/>
<path id="Vector_34" d="M288.611 273.465L349.111 289.002" stroke="#4FD1E5" stroke-width="1.5"/>
<path id="Vector_35" d="M361.111 224.849L409.611 202.296" stroke="#4FD1E5" stroke-width="1.5"/>
<path id="Vector_36" d="M397.611 181.747L410.611 203.298" stroke="#4FD1E5" stroke-width="1.5"/>
<path id="Vector_37" d="M251.611 62.4628L358.111 99.0499" stroke="#4FD1E5" stroke-width="1.5"/>
<path id="Vector_38" d="M341.611 70.4819L358.111 99.05" stroke="#4FD1E5" stroke-width="1.5"/>
<path id="Vector_39" d="M279.111 103.059L341.611 70.4819" stroke="#4FD1E5" stroke-width="1.5"/>
<path id="Vector_40" d="M125.611 106.568L279.111 102.057" stroke="#4FD1E5" stroke-width="1.5"/>
</g>
<path id="Play" d="M164.936 181.579L197.122 261.434L237.539 199.652L164.936 181.579Z" fill="#4FD1E5" stroke="#4FD1E5" stroke-width="2.4"/>
<g id="Costuras">
<mask id="path-42-inside-1_3321_1782" fill="white">
<path d="M412.339 127.469C418.598 183.787 351.854 252.54 246.27 295.301C140.685 338.061 42.4826 337.236 7.89153 295.297C7.89153 232.988 74.9516 174.977 180.536 132.216C286.121 89.4557 378.098 84.0494 412.339 127.469Z"/>
</mask>
<path d="M412.339 127.469C418.598 183.787 351.854 252.54 246.27 295.301C140.685 338.061 42.4826 337.236 7.89153 295.297C7.89153 232.988 74.9516 174.977 180.536 132.216C286.121 89.4557 378.098 84.0494 412.339 127.469Z" stroke="#4FD1E5" stroke-width="2" mask="url(#path-42-inside-1_3321_1782)"/>
</g>
<g id="Pelota">
<mask id="path-43-inside-2_3321_1782" fill="white">
<path d="M412.057 126.743C440.513 197.344 371.922 298.749 264.976 342.061C158.03 385.373 36.066 365.547 7.60926 294.946C-20.8475 224.345 54.9793 129.704 161.925 86.3916C268.871 43.0795 383.6 56.1422 412.057 126.743Z"/>
</mask>
<path d="M412.057 126.743C440.513 197.344 371.922 298.749 264.976 342.061C158.03 385.373 36.066 365.547 7.60926 294.946C-20.8475 224.345 54.9793 129.704 161.925 86.3916C268.871 43.0795 383.6 56.1422 412.057 126.743Z" stroke="#4FD1E5" stroke-width="6" mask="url(#path-43-inside-2_3321_1782)"/>
</g>
</g>
</svg>
