<svg width="840" height="260" viewBox="0 0 840 260" fill="none" xmlns="http://www.w3.org/2000/svg">
<g id="LOGO CONEXUS RUGBY">
<path id="CONEXUS" d="M393.44 148.96C389.12 148.96 385.093 148.267 381.36 146.88C377.68 145.44 374.48 143.413 371.76 140.8C369.04 138.187 366.907 135.12 365.36 131.6C363.867 128.08 363.12 124.213 363.12 120C363.12 115.787 363.867 111.92 365.36 108.4C366.907 104.88 369.04 101.813 371.76 99.2C374.533 96.5867 377.76 94.5867 381.44 93.2C385.12 91.76 389.147 91.04 393.52 91.04C398.373 91.04 402.747 91.8933 406.64 93.6C410.587 95.2533 413.893 97.7067 416.56 100.96L408.24 108.64C406.32 106.453 404.187 104.827 401.84 103.76C399.493 102.64 396.933 102.08 394.16 102.08C391.547 102.08 389.147 102.507 386.96 103.36C384.773 104.213 382.88 105.44 381.28 107.04C379.68 108.64 378.427 110.533 377.52 112.72C376.667 114.907 376.24 117.333 376.24 120C376.24 122.667 376.667 125.093 377.52 127.28C378.427 129.467 379.68 131.36 381.28 132.96C382.88 134.56 384.773 135.787 386.96 136.64C389.147 137.493 391.547 137.92 394.16 137.92C396.933 137.92 399.493 137.387 401.84 136.32C404.187 135.2 406.32 133.52 408.24 131.28L416.56 138.96C413.893 142.213 410.587 144.693 406.64 146.4C402.747 148.107 398.347 148.96 393.44 148.96ZM459.34 148.96C454.913 148.96 450.807 148.24 447.02 146.8C443.287 145.36 440.033 143.333 437.26 140.72C434.54 138.107 432.407 135.04 430.86 131.52C429.367 128 428.62 124.16 428.62 120C428.62 115.84 429.367 112 430.86 108.48C432.407 104.96 434.567 101.893 437.34 99.28C440.113 96.6667 443.367 94.64 447.1 93.2C450.833 91.76 454.887 91.04 459.26 91.04C463.687 91.04 467.74 91.76 471.42 93.2C475.153 94.64 478.38 96.6667 481.1 99.28C483.873 101.893 486.033 104.96 487.58 108.48C489.127 111.947 489.9 115.787 489.9 120C489.9 124.16 489.127 128.027 487.58 131.6C486.033 135.12 483.873 138.187 481.1 140.8C478.38 143.36 475.153 145.36 471.42 146.8C467.74 148.24 463.713 148.96 459.34 148.96ZM459.26 137.92C461.767 137.92 464.06 137.493 466.14 136.64C468.273 135.787 470.14 134.56 471.74 132.96C473.34 131.36 474.567 129.467 475.42 127.28C476.327 125.093 476.78 122.667 476.78 120C476.78 117.333 476.327 114.907 475.42 112.72C474.567 110.533 473.34 108.64 471.74 107.04C470.193 105.44 468.353 104.213 466.22 103.36C464.087 102.507 461.767 102.08 459.26 102.08C456.753 102.08 454.433 102.507 452.3 103.36C450.22 104.213 448.38 105.44 446.78 107.04C445.18 108.64 443.927 110.533 443.02 112.72C442.167 114.907 441.74 117.333 441.74 120C441.74 122.613 442.167 125.04 443.02 127.28C443.927 129.467 445.153 131.36 446.7 132.96C448.3 134.56 450.167 135.787 452.3 136.64C454.433 137.493 456.753 137.92 459.26 137.92ZM507.64 148V92H518.36L551.4 132.32H546.2V92H559V148H548.36L515.24 107.68H520.44V148H507.64ZM592.169 114.56H619.129V124.64H592.169V114.56ZM593.129 137.6H623.609V148H580.249V92H622.569V102.4H593.129V137.6ZM634.974 148L659.054 114.8V124.24L636.014 92H650.734L666.654 114.48L660.494 114.56L676.174 92H690.254L667.374 123.68V114.4L691.614 148H676.654L660.174 124.24H666.094L649.854 148H634.974ZM730.583 148.96C722.636 148.96 716.423 146.747 711.943 142.32C707.463 137.893 705.223 131.573 705.223 123.36V92H718.183V122.88C718.183 128.213 719.276 132.053 721.463 134.4C723.649 136.747 726.716 137.92 730.663 137.92C734.609 137.92 737.676 136.747 739.863 134.4C742.049 132.053 743.142 128.213 743.142 122.88V92H755.943V123.36C755.943 131.573 753.703 137.893 749.223 142.32C744.743 146.747 738.529 148.96 730.583 148.96ZM795.149 148.96C790.669 148.96 786.376 148.373 782.269 147.2C778.163 145.973 774.856 144.4 772.349 142.48L776.749 132.72C779.149 134.427 781.976 135.84 785.229 136.96C788.536 138.027 791.869 138.56 795.229 138.56C797.789 138.56 799.843 138.32 801.389 137.84C802.989 137.307 804.163 136.587 804.909 135.68C805.656 134.773 806.029 133.733 806.029 132.56C806.029 131.067 805.443 129.893 804.269 129.04C803.096 128.133 801.549 127.413 799.629 126.88C797.709 126.293 795.576 125.76 793.229 125.28C790.936 124.747 788.616 124.107 786.269 123.36C783.976 122.613 781.869 121.653 779.949 120.48C778.029 119.307 776.456 117.76 775.229 115.84C774.056 113.92 773.469 111.467 773.469 108.48C773.469 105.28 774.323 102.373 776.029 99.76C777.789 97.0933 780.403 94.9867 783.869 93.44C787.389 91.84 791.789 91.04 797.069 91.04C800.589 91.04 804.056 91.4667 807.469 92.32C810.883 93.12 813.896 94.3467 816.509 96L812.509 105.84C809.896 104.347 807.283 103.253 804.669 102.56C802.056 101.813 799.496 101.44 796.989 101.44C794.483 101.44 792.429 101.733 790.829 102.32C789.229 102.907 788.083 103.68 787.389 104.64C786.696 105.547 786.349 106.613 786.349 107.84C786.349 109.28 786.936 110.453 788.109 111.36C789.283 112.213 790.829 112.907 792.749 113.44C794.669 113.973 796.776 114.507 799.069 115.04C801.416 115.573 803.736 116.187 806.029 116.88C808.376 117.573 810.509 118.507 812.429 119.68C814.349 120.853 815.896 122.4 817.069 124.32C818.296 126.24 818.909 128.667 818.909 131.6C818.909 134.747 818.029 137.627 816.269 140.24C814.509 142.853 811.869 144.96 808.349 146.56C804.883 148.16 800.483 148.96 795.149 148.96Z" fill="white"/>
<path id="RUGBY" d="M364.7 197V162H379.1C382.2 162 384.85 162.5 387.05 163.5C389.283 164.5 391 165.933 392.2 167.8C393.4 169.667 394 171.883 394 174.45C394 177.017 393.4 179.233 392.2 181.1C391 182.933 389.283 184.35 387.05 185.35C384.85 186.317 382.2 186.8 379.1 186.8H368.3L371.2 183.85V197H364.7ZM387.6 197L378.75 184.3H385.7L394.6 197H387.6ZM371.2 184.55L368.3 181.45H378.8C381.667 181.45 383.817 180.833 385.25 179.6C386.717 178.367 387.45 176.65 387.45 174.45C387.45 172.217 386.717 170.5 385.25 169.3C383.817 168.1 381.667 167.5 378.8 167.5H368.3L371.2 164.3V184.55ZM421.322 197.5C416.522 197.5 412.756 196.15 410.022 193.45C407.322 190.75 405.972 186.85 405.972 181.75V162H412.472V181.5C412.472 185.1 413.239 187.717 414.772 189.35C416.339 190.983 418.539 191.8 421.372 191.8C424.206 191.8 426.389 190.983 427.922 189.35C429.456 187.717 430.222 185.1 430.222 181.5V162H436.622V181.75C436.622 186.85 435.256 190.75 432.522 193.45C429.822 196.15 426.089 197.5 421.322 197.5ZM467.075 197.5C464.342 197.5 461.825 197.067 459.525 196.2C457.259 195.3 455.275 194.05 453.575 192.45C451.875 190.817 450.559 188.9 449.625 186.7C448.692 184.5 448.225 182.1 448.225 179.5C448.225 176.9 448.692 174.5 449.625 172.3C450.559 170.1 451.875 168.2 453.575 166.6C455.309 164.967 457.325 163.717 459.625 162.85C461.925 161.95 464.442 161.5 467.175 161.5C470.142 161.5 472.809 161.983 475.175 162.95C477.575 163.917 479.592 165.333 481.225 167.2L477.125 171.2C475.759 169.833 474.275 168.833 472.675 168.2C471.109 167.533 469.375 167.2 467.475 167.2C465.642 167.2 463.942 167.5 462.375 168.1C460.809 168.7 459.459 169.55 458.325 170.65C457.192 171.75 456.309 173.05 455.675 174.55C455.075 176.05 454.775 177.7 454.775 179.5C454.775 181.267 455.075 182.9 455.675 184.4C456.309 185.9 457.192 187.217 458.325 188.35C459.459 189.45 460.792 190.3 462.325 190.9C463.859 191.5 465.559 191.8 467.425 191.8C469.159 191.8 470.825 191.533 472.425 191C474.059 190.433 475.609 189.5 477.075 188.2L480.775 193.05C478.942 194.517 476.809 195.633 474.375 196.4C471.975 197.133 469.542 197.5 467.075 197.5ZM474.625 192.2V179.1H480.775V193.05L474.625 192.2ZM494.348 197V162H510.748C514.948 162 518.148 162.833 520.348 164.5C522.548 166.133 523.648 168.333 523.648 171.1C523.648 172.967 523.215 174.567 522.348 175.9C521.482 177.2 520.315 178.217 518.848 178.95C517.415 179.65 515.848 180 514.148 180L515.048 178.2C517.015 178.2 518.782 178.567 520.348 179.3C521.915 180 523.148 181.033 524.048 182.4C524.982 183.767 525.448 185.467 525.448 187.5C525.448 190.5 524.298 192.833 521.998 194.5C519.698 196.167 516.282 197 511.748 197H494.348ZM500.848 191.9H511.348C513.782 191.9 515.648 191.5 516.948 190.7C518.248 189.9 518.898 188.617 518.898 186.85C518.898 185.117 518.248 183.85 516.948 183.05C515.648 182.217 513.782 181.8 511.348 181.8H500.348V176.75H510.048C512.315 176.75 514.048 176.35 515.248 175.55C516.482 174.75 517.098 173.55 517.098 171.95C517.098 170.317 516.482 169.1 515.248 168.3C514.048 167.5 512.315 167.1 510.048 167.1H500.848V191.9ZM545.253 197V183.15L546.703 187.15L531.503 162H538.453L550.653 182.25H546.753L559.053 162H565.453L550.253 187.15L551.753 183.15V197H545.253Z" fill="#4FD1E5"/>
<g id="Nodos">
<path id="Vector" d="M104.333 247.368C106.612 247.368 108.458 245.003 108.458 242.085C108.458 239.167 106.612 236.802 104.333 236.802C102.055 236.802 100.208 239.167 100.208 242.085C100.208 245.003 102.055 247.368 104.333 247.368Z" fill="#4FD1E5" stroke="#4FD1E5" stroke-width="2.25"/>
<path id="Vector_2" d="M72.8335 118.315C75.1117 118.315 76.9585 115.95 76.9585 113.032C76.9585 110.115 75.1117 107.75 72.8335 107.75C70.5553 107.75 68.7085 110.115 68.7085 113.032C68.7085 115.95 70.5553 118.315 72.8335 118.315Z" fill="#4FD1E5" stroke="#4FD1E5" stroke-width="2.25"/>
<path id="Vector_3" d="M39.0835 152.277C41.3617 152.277 43.2085 149.911 43.2085 146.994C43.2085 144.076 41.3617 141.711 39.0835 141.711C36.8053 141.711 34.9585 144.076 34.9585 146.994C34.9585 149.911 36.8053 152.277 39.0835 152.277Z" fill="#4FD1E5" stroke="#4FD1E5" stroke-width="2.25"/>
<path id="Vector_4" d="M288.833 144.73C291.112 144.73 292.958 142.364 292.958 139.447C292.958 136.529 291.112 134.164 288.833 134.164C286.555 134.164 284.708 136.529 284.708 139.447C284.708 142.364 286.555 144.73 288.833 144.73Z" fill="#4FD1E5" stroke="#4FD1E5" stroke-width="2.25"/>
<path id="Vector_5" d="M34.5835 122.844C36.8617 122.844 38.7085 120.478 38.7085 117.561C38.7085 114.643 36.8617 112.278 34.5835 112.278C32.3053 112.278 30.4585 114.643 30.4585 117.561C30.4585 120.478 32.3053 122.844 34.5835 122.844Z" fill="#4FD1E5" stroke="#4FD1E5" stroke-width="2.25"/>
<path id="Vector_6" d="M226.958 52.6571C229.444 52.6571 231.458 50.2919 231.458 47.3743C231.458 44.4566 229.444 42.0914 226.958 42.0914C224.473 42.0914 222.458 44.4566 222.458 47.3743C222.458 50.2919 224.473 52.6571 226.958 52.6571Z" fill="#4FD1E5" stroke="#4FD1E5" stroke-width="2.25"/>
<path id="Vector_7" d="M286.208 50.393C288.694 50.393 290.708 48.0278 290.708 45.1101C290.708 42.1925 288.694 39.8273 286.208 39.8273C283.723 39.8273 281.708 42.1925 281.708 45.1101C281.708 48.0278 283.723 50.393 286.208 50.393Z" fill="#4FD1E5" stroke="#4FD1E5" stroke-width="2.25"/>
<path id="Vector_8" d="M315.458 111.523C317.944 111.523 319.958 109.158 319.958 106.24C319.958 103.323 317.944 100.957 315.458 100.957C312.973 100.957 310.958 103.323 310.958 106.24C310.958 109.158 312.973 111.523 315.458 111.523Z" fill="#4FD1E5" stroke="#4FD1E5" stroke-width="2.25"/>
<path id="Vector_9" d="M325.208 128.126C327.694 128.126 329.708 125.761 329.708 122.844C329.708 119.926 327.694 117.561 325.208 117.561C322.723 117.561 320.708 119.926 320.708 122.844C320.708 125.761 322.723 128.126 325.208 128.126Z" fill="#4FD1E5" stroke="#4FD1E5" stroke-width="2.25"/>
<path id="Vector_10" d="M233.333 181.709C235.612 181.709 237.458 179.344 237.458 176.427C237.458 173.509 235.612 171.144 233.333 171.144C231.055 171.144 229.208 173.509 229.208 176.427C229.208 179.344 231.055 181.709 233.333 181.709Z" fill="#4FD1E5" stroke="#4FD1E5" stroke-width="2.25"/>
<path id="Vector_11" d="M157.583 211.897C159.862 211.897 161.708 209.532 161.708 206.614C161.708 203.697 159.862 201.332 157.583 201.332C155.305 201.332 153.458 203.697 153.458 206.614C153.458 209.532 155.305 211.897 157.583 211.897Z" fill="#4FD1E5" stroke="#4FD1E5" stroke-width="2.25"/>
<path id="Vector_12" d="M81.8335 220.199C84.1117 220.199 85.9585 217.834 85.9585 214.916C85.9585 211.998 84.1117 209.633 81.8335 209.633C79.5553 209.633 77.7085 211.998 77.7085 214.916C77.7085 217.834 79.5553 220.199 81.8335 220.199Z" fill="#4FD1E5" stroke="#4FD1E5" stroke-width="2.25"/>
<path id="Vector_13" d="M111.083 54.9212C113.362 54.9212 115.208 52.556 115.208 49.6383C115.208 46.7207 113.362 44.3555 111.083 44.3555C108.805 44.3555 106.958 46.7207 106.958 49.6383C106.958 52.556 108.805 54.9212 111.083 54.9212Z" fill="#4FD1E5" stroke="#4FD1E5" stroke-width="2.25"/>
<path id="Vector_14" d="M24.0835 197.558C26.3617 197.558 28.2085 195.362 28.2085 192.653C28.2085 189.943 26.3617 187.747 24.0835 187.747C21.8053 187.747 19.9585 189.943 19.9585 192.653C19.9585 195.362 21.8053 197.558 24.0835 197.558Z" fill="#4FD1E5" stroke="#4FD1E5" stroke-width="2.25"/>
<path id="Vector_15" d="M201.833 236.802C204.112 236.802 205.958 234.606 205.958 231.897C205.958 229.187 204.112 226.991 201.833 226.991C199.555 226.991 197.708 229.187 197.708 231.897C197.708 234.606 199.555 236.802 201.833 236.802Z" fill="#4FD1E5" stroke="#4FD1E5" stroke-width="2.25"/>
<path id="Vector_16" d="M325.583 70.7697C327.862 70.7697 329.708 68.4045 329.708 65.4868C329.708 62.5692 327.862 60.204 325.583 60.204C323.305 60.204 321.458 62.5692 321.458 65.4868C321.458 68.4045 323.305 70.7697 325.583 70.7697Z" fill="#4FD1E5" stroke="#4FD1E5" stroke-width="2.25"/>
<path id="Vector_17" d="M205.583 23.224C207.862 23.224 209.708 20.8588 209.708 17.9412C209.708 15.0235 207.862 12.6583 205.583 12.6583C203.305 12.6583 201.458 15.0235 201.458 17.9412C201.458 20.8588 203.305 23.224 205.583 23.224Z" fill="#4FD1E5" stroke="#4FD1E5" stroke-width="2.25"/>
<path id="Vector_18" d="M273.083 28.507C275.362 28.507 277.208 26.1418 277.208 23.2241C277.208 20.3065 275.362 17.9413 273.083 17.9413C270.805 17.9413 268.958 20.3065 268.958 23.2241C268.958 26.1418 270.805 28.507 273.083 28.507Z" fill="#4FD1E5" stroke="#4FD1E5" stroke-width="2.25"/>
<path id="Vector_19" d="M155.333 73.7885C157.612 73.7885 159.458 71.4233 159.458 68.5056C159.458 65.588 157.612 63.2228 155.333 63.2228C153.055 63.2228 151.208 65.588 151.208 68.5056C151.208 71.4233 153.055 73.7885 155.333 73.7885Z" fill="#4FD1E5" stroke="#4FD1E5" stroke-width="2.25"/>
<path id="Vector_20" d="M279.083 192.275C281.362 192.275 283.208 189.91 283.208 186.992C283.208 184.075 281.362 181.709 279.083 181.709C276.805 181.709 274.958 184.075 274.958 186.992C274.958 189.91 276.805 192.275 279.083 192.275Z" fill="#4FD1E5" stroke="#4FD1E5" stroke-width="2.25"/>
</g>
<g id="Lineas" opacity="0.6">
<path id="Vector_21" d="M81.0835 215.671L201.083 231.897" stroke="#4FD1E5" stroke-width="1.125"/>
<path id="Vector_22" d="M103.208 242.085L81.0835 215.671" stroke="#4FD1E5" stroke-width="1.125"/>
<path id="Vector_23" d="M205.208 17.9413L157.583 68.8831" stroke="#4FD1E5" stroke-width="1.125"/>
<path id="Vector_24" d="M205.208 17.9413L227.333 46.9969" stroke="#4FD1E5" stroke-width="1.125"/>
<path id="Vector_25" d="M110.708 50.0157L157.583 68.8831" stroke="#4FD1E5" stroke-width="1.125"/>
<path id="Vector_26" d="M103.208 242.085L157.583 206.237" stroke="#4FD1E5" stroke-width="1.125"/>
<path id="Vector_27" d="M201.083 232.274L157.583 206.237" stroke="#4FD1E5" stroke-width="1.125"/>
<path id="Vector_28" d="M110.708 50.0157L72.4585 113.033" stroke="#4FD1E5" stroke-width="1.125"/>
<path id="Vector_29" d="M34.5835 117.938L72.4585 113.033" stroke="#4FD1E5" stroke-width="1.125"/>
<path id="Vector_30" d="M39.0835 147.371L34.9585 118.315" stroke="#4FD1E5" stroke-width="1.125"/>
<path id="Vector_31" d="M233.709 176.049L201.458 231.897" stroke="#4FD1E5" stroke-width="1.125"/>
<path id="Vector_32" d="M288.083 139.447L201.458 231.897" stroke="#4FD1E5" stroke-width="1.125"/>
<path id="Vector_33" d="M288.083 139.447L279.083 187.747" stroke="#4FD1E5" stroke-width="1.125"/>
<path id="Vector_34" d="M233.708 176.049L279.083 187.747" stroke="#4FD1E5" stroke-width="1.125"/>
<path id="Vector_35" d="M288.083 139.447L324.459 122.466" stroke="#4FD1E5" stroke-width="1.125"/>
<path id="Vector_36" d="M315.458 106.995L325.208 123.221" stroke="#4FD1E5" stroke-width="1.125"/>
<path id="Vector_37" d="M205.958 17.1866L285.833 44.7329" stroke="#4FD1E5" stroke-width="1.125"/>
<path id="Vector_38" d="M273.458 23.2241L285.833 44.7329" stroke="#4FD1E5" stroke-width="1.125"/>
<path id="Vector_39" d="M226.583 47.7516L273.458 23.2241" stroke="#4FD1E5" stroke-width="1.125"/>
<path id="Vector_40" d="M111.458 50.3931L226.583 46.9969" stroke="#4FD1E5" stroke-width="1.125"/>
</g>
<path id="Play" d="M140.824 106.868L165.057 166.991L195.487 120.476L140.824 106.868Z" fill="#4FD1E5" stroke="#4FD1E5" stroke-width="1.8"/>
<g id="Costuras">
<mask id="path-44-inside-1_3327_1935" fill="white">
<path d="M326.505 65.8748C331.199 108.113 281.141 159.678 201.953 191.749C122.764 223.819 49.1123 223.2 23.169 191.746C23.169 145.014 73.4641 101.506 152.653 69.4357C231.841 37.3651 300.824 33.3104 326.505 65.8748Z"/>
</mask>
<path d="M326.505 65.8748C331.199 108.113 281.141 159.678 201.953 191.749C122.764 223.819 49.1123 223.2 23.169 191.746C23.169 145.014 73.4641 101.506 152.653 69.4357C231.841 37.3651 300.824 33.3104 326.505 65.8748Z" stroke="#4FD1E5" stroke-width="1.5" mask="url(#path-44-inside-1_3327_1935)"/>
</g>
<g id="Pelota">
<mask id="path-45-inside-2_3327_1935" fill="white">
<path d="M326.292 65.3308C347.635 118.282 296.192 194.335 215.982 226.819C135.773 259.303 44.2995 244.433 22.9569 191.483C1.61436 138.532 58.4845 67.5511 138.694 35.067C218.904 2.58295 304.95 12.38 326.292 65.3308Z"/>
</mask>
<path d="M326.292 65.3308C347.635 118.282 296.192 194.335 215.982 226.819C135.773 259.303 44.2995 244.433 22.9569 191.483C1.61436 138.532 58.4845 67.5511 138.694 35.067C218.904 2.58295 304.95 12.38 326.292 65.3308Z" stroke="#4FD1E5" stroke-width="4.5" mask="url(#path-45-inside-2_3327_1935)"/>
</g>
</g>
</svg>
