<svg viewBox="0 0 840 420" fill="none" xmlns="http://www.w3.org/2000/svg">
<g id="LOGO CONEXUS RUGBY">
<rect width="840" height="420" fill="#181E2F"/>
<path id="CONEXUS" d="M38.604 238.936C34.392 238.936 30.466 238.26 26.826 236.908C23.238 235.504 20.118 233.528 17.466 230.98C14.814 228.432 12.734 225.442 11.226 222.01C9.77 218.578 9.042 214.808 9.042 210.7C9.042 206.592 9.77 202.822 11.226 199.39C12.734 195.958 14.814 192.968 17.466 190.42C20.17 187.872 23.316 185.922 26.904 184.57C30.492 183.166 34.418 182.464 38.682 182.464C43.414 182.464 47.678 183.296 51.474 184.96C55.322 186.572 58.546 188.964 61.146 192.136L53.034 199.624C51.162 197.492 49.082 195.906 46.794 194.866C44.506 193.774 42.01 193.228 39.306 193.228C36.758 193.228 34.418 193.644 32.286 194.476C30.154 195.308 28.308 196.504 26.748 198.064C25.188 199.624 23.966 201.47 23.082 203.602C22.25 205.734 21.834 208.1 21.834 210.7C21.834 213.3 22.25 215.666 23.082 217.798C23.966 219.93 25.188 221.776 26.748 223.336C28.308 224.896 30.154 226.092 32.286 226.924C34.418 227.756 36.758 228.172 39.306 228.172C42.01 228.172 44.506 227.652 46.794 226.612C49.082 225.52 51.162 223.882 53.034 221.698L61.146 229.186C58.546 232.358 55.322 234.776 51.474 236.44C47.678 238.104 43.388 238.936 38.604 238.936ZM95.8365 238.936C91.5205 238.936 87.5165 238.234 83.8245 236.83C80.1845 235.426 77.0125 233.45 74.3085 230.902C71.6565 228.354 69.5765 225.364 68.0685 221.932C66.6125 218.5 65.8845 214.756 65.8845 210.7C65.8845 206.644 66.6125 202.9 68.0685 199.468C69.5765 196.036 71.6825 193.046 74.3865 190.498C77.0905 187.95 80.2625 185.974 83.9025 184.57C87.5425 183.166 91.4945 182.464 95.7585 182.464C100.074 182.464 104.026 183.166 107.614 184.57C111.255 185.974 114.401 187.95 117.053 190.498C119.757 193.046 121.863 196.036 123.371 199.468C124.879 202.848 125.633 206.592 125.633 210.7C125.633 214.756 124.879 218.526 123.371 222.01C121.863 225.442 119.757 228.432 117.053 230.98C114.401 233.476 111.255 235.426 107.614 236.83C104.026 238.234 100.1 238.936 95.8365 238.936ZM95.7585 228.172C98.2025 228.172 100.438 227.756 102.467 226.924C104.547 226.092 106.367 224.896 107.926 223.336C109.487 221.776 110.683 219.93 111.514 217.798C112.399 215.666 112.841 213.3 112.841 210.7C112.841 208.1 112.399 205.734 111.514 203.602C110.683 201.47 109.487 199.624 107.926 198.064C106.419 196.504 104.625 195.308 102.544 194.476C100.464 193.644 98.2025 193.228 95.7585 193.228C93.3145 193.228 91.0525 193.644 88.9725 194.476C86.9445 195.308 85.1505 196.504 83.5905 198.064C82.0305 199.624 80.8085 201.47 79.9245 203.602C79.0925 205.734 78.6765 208.1 78.6765 210.7C78.6765 213.248 79.0925 215.614 79.9245 217.798C80.8085 219.93 82.0045 221.776 83.5125 223.336C85.0725 224.896 86.8925 226.092 88.9725 226.924C91.0525 227.756 93.3145 228.172 95.7585 228.172ZM135.909 238V183.4H146.361L178.575 222.712H173.505V183.4H185.985V238H175.611L143.319 198.688H148.389V238H135.909ZM211.305 205.396H237.591V215.224H211.305V205.396ZM212.241 227.86H241.959V238H199.683V183.4H240.945V193.54H212.241V227.86ZM246.02 238L269.498 205.63V214.834L247.034 183.4H261.386L276.908 205.318L270.902 205.396L286.19 183.4H299.918L277.61 214.288V205.24L301.244 238H286.658L270.59 214.834H276.362L260.528 238H246.02ZM332.218 238.936C324.47 238.936 318.412 236.778 314.044 232.462C309.676 228.146 307.492 221.984 307.492 213.976V183.4H320.128V213.508C320.128 218.708 321.194 222.452 323.326 224.74C325.458 227.028 328.448 228.172 332.296 228.172C336.144 228.172 339.134 227.028 341.266 224.74C343.398 222.452 344.464 218.708 344.464 213.508V183.4H356.944V213.976C356.944 221.984 354.76 228.146 350.392 232.462C346.024 236.778 339.966 238.936 332.218 238.936ZM388.151 238.936C383.783 238.936 379.597 238.364 375.593 237.22C371.589 236.024 368.365 234.49 365.921 232.618L370.211 223.102C372.551 224.766 375.307 226.144 378.479 227.236C381.703 228.276 384.953 228.796 388.229 228.796C390.725 228.796 392.727 228.562 394.235 228.094C395.795 227.574 396.939 226.872 397.667 225.988C398.395 225.104 398.759 224.09 398.759 222.946C398.759 221.49 398.187 220.346 397.043 219.514C395.899 218.63 394.391 217.928 392.519 217.408C390.647 216.836 388.567 216.316 386.279 215.848C384.043 215.328 381.781 214.704 379.493 213.976C377.257 213.248 375.203 212.312 373.331 211.168C371.459 210.024 369.925 208.516 368.729 206.644C367.585 204.772 367.013 202.38 367.013 199.468C367.013 196.348 367.845 193.514 369.509 190.966C371.225 188.366 373.773 186.312 377.153 184.804C380.585 183.244 384.875 182.464 390.023 182.464C393.455 182.464 396.835 182.88 400.163 183.712C403.491 184.492 406.429 185.688 408.977 187.3L405.077 196.894C402.529 195.438 399.981 194.372 397.433 193.696C394.885 192.968 392.389 192.604 389.945 192.604C387.501 192.604 385.499 192.89 383.939 193.462C382.379 194.034 381.261 194.788 380.585 195.724C379.909 196.608 379.571 197.648 379.571 198.844C379.571 200.248 380.143 201.392 381.287 202.276C382.431 203.108 383.939 203.784 385.811 204.304C387.683 204.824 389.737 205.344 391.973 205.864C394.261 206.384 396.523 206.982 398.759 207.658C401.047 208.334 403.127 209.244 404.999 210.388C406.871 211.532 408.379 213.04 409.523 214.912C410.719 216.784 411.317 219.15 411.317 222.01C411.317 225.078 410.459 227.886 408.743 230.434C407.027 232.982 404.453 235.036 401.021 236.596C397.641 238.156 393.351 238.936 388.151 238.936Z" fill="white"/>
<path id="RUGBY" d="M252.23 284V252.5H265.19C267.98 252.5 270.365 252.95 272.345 253.85C274.355 254.75 275.9 256.04 276.98 257.72C278.06 259.4 278.6 261.395 278.6 263.705C278.6 266.015 278.06 268.01 276.98 269.69C275.9 271.34 274.355 272.615 272.345 273.515C270.365 274.385 267.98 274.82 265.19 274.82H255.47L258.08 272.165V284H252.23ZM272.84 284L264.875 272.57H271.13L279.14 284H272.84ZM258.08 272.795L255.47 270.005H264.92C267.5 270.005 269.435 269.45 270.725 268.34C272.045 267.23 272.705 265.685 272.705 263.705C272.705 261.695 272.045 260.15 270.725 259.07C269.435 257.99 267.5 257.45 264.92 257.45H255.47L258.08 254.57V272.795ZM297.925 284.45C293.605 284.45 290.215 283.235 287.755 280.805C285.325 278.375 284.11 274.865 284.11 270.275V252.5H289.96V270.05C289.96 273.29 290.65 275.645 292.03 277.115C293.44 278.585 295.42 279.32 297.97 279.32C300.52 279.32 302.485 278.585 303.865 277.115C305.245 275.645 305.935 273.29 305.935 270.05V252.5H311.695V270.275C311.695 274.865 310.465 278.375 308.005 280.805C305.575 283.235 302.215 284.45 297.925 284.45ZM333.838 284.45C331.378 284.45 329.113 284.06 327.043 283.28C325.003 282.47 323.218 281.345 321.688 279.905C320.158 278.435 318.973 276.71 318.133 274.73C317.293 272.75 316.873 270.59 316.873 268.25C316.873 265.91 317.293 263.75 318.133 261.77C318.973 259.79 320.158 258.08 321.688 256.64C323.248 255.17 325.063 254.045 327.133 253.265C329.203 252.455 331.468 252.05 333.928 252.05C336.598 252.05 338.998 252.485 341.128 253.355C343.288 254.225 345.103 255.5 346.573 257.18L342.883 260.78C341.653 259.55 340.318 258.65 338.878 258.08C337.468 257.48 335.908 257.18 334.198 257.18C332.548 257.18 331.018 257.45 329.608 257.99C328.198 258.53 326.983 259.295 325.963 260.285C324.943 261.275 324.148 262.445 323.578 263.795C323.038 265.145 322.768 266.63 322.768 268.25C322.768 269.84 323.038 271.31 323.578 272.66C324.148 274.01 324.943 275.195 325.963 276.215C326.983 277.205 328.183 277.97 329.563 278.51C330.943 279.05 332.473 279.32 334.153 279.32C335.713 279.32 337.213 279.08 338.653 278.6C340.123 278.09 341.518 277.25 342.838 276.08L346.168 280.445C344.518 281.765 342.598 282.77 340.408 283.46C338.248 284.12 336.058 284.45 333.838 284.45ZM340.633 279.68V267.89H346.168V280.445L340.633 279.68ZM353.119 284V252.5H367.879C371.659 252.5 374.539 253.25 376.519 254.75C378.499 256.22 379.489 258.2 379.489 260.69C379.489 262.37 379.099 263.81 378.319 265.01C377.539 266.18 376.489 267.095 375.169 267.755C373.879 268.385 372.469 268.7 370.939 268.7L371.749 267.08C373.519 267.08 375.109 267.41 376.519 268.07C377.929 268.7 379.039 269.63 379.849 270.86C380.689 272.09 381.109 273.62 381.109 275.45C381.109 278.15 380.074 280.25 378.004 281.75C375.934 283.25 372.859 284 368.779 284H353.119ZM358.969 279.41H368.419C370.609 279.41 372.289 279.05 373.459 278.33C374.629 277.61 375.214 276.455 375.214 274.865C375.214 273.305 374.629 272.165 373.459 271.445C372.289 270.695 370.609 270.32 368.419 270.32H358.519V265.775H367.249C369.289 265.775 370.849 265.415 371.929 264.695C373.039 263.975 373.594 262.895 373.594 261.455C373.594 259.985 373.039 258.89 371.929 258.17C370.849 257.45 369.289 257.09 367.249 257.09H358.969V279.41ZM393.668 284V271.535L394.973 275.135L381.293 252.5H387.548L398.528 270.725H395.018L406.088 252.5H411.848L398.168 275.135L399.518 271.535V284H393.668Z" fill="#4FD1E5"/>
<g id="Nodos">
<path id="Vector" d="M536.111 368.191C539.148 368.191 541.611 365.049 541.611 361.174C541.611 357.299 539.148 354.157 536.111 354.157C533.073 354.157 530.611 357.299 530.611 361.174C530.611 365.049 533.073 368.191 536.111 368.191Z" fill="#4FD1E5" stroke="#4FD1E5" stroke-width="3"/>
<path id="Vector_2" d="M494.111 196.783C497.148 196.783 499.611 193.641 499.611 189.766C499.611 185.891 497.148 182.749 494.111 182.749C491.073 182.749 488.611 185.891 488.611 189.766C488.611 193.641 491.073 196.783 494.111 196.783Z" fill="#4FD1E5" stroke="#4FD1E5" stroke-width="3"/>
<path id="Vector_3" d="M449.111 241.89C452.148 241.89 454.611 238.748 454.611 234.873C454.611 230.998 452.148 227.857 449.111 227.857C446.073 227.857 443.611 230.998 443.611 234.873C443.611 238.748 446.073 241.89 449.111 241.89Z" fill="#4FD1E5" stroke="#4FD1E5" stroke-width="3"/>
<path id="Vector_4" d="M782.111 231.866C785.148 231.866 787.611 228.725 787.611 224.849C787.611 220.974 785.148 217.833 782.111 217.833C779.073 217.833 776.611 220.974 776.611 224.849C776.611 228.725 779.073 231.866 782.111 231.866Z" fill="#4FD1E5" stroke="#4FD1E5" stroke-width="3"/>
<path id="Vector_5" d="M443.111 202.797C446.148 202.797 448.611 199.655 448.611 195.78C448.611 191.905 446.148 188.764 443.111 188.764C440.073 188.764 437.611 191.905 437.611 195.78C437.611 199.655 440.073 202.797 443.111 202.797Z" fill="#4FD1E5" stroke="#4FD1E5" stroke-width="3"/>
<path id="Vector_6" d="M699.611 109.575C702.925 109.575 705.611 106.433 705.611 102.558C705.611 98.683 702.925 95.5415 699.611 95.5415C696.297 95.5415 693.611 98.683 693.611 102.558C693.611 106.433 696.297 109.575 699.611 109.575Z" fill="#4FD1E5" stroke="#4FD1E5" stroke-width="3"/>
<path id="Vector_7" d="M778.611 106.568C781.925 106.568 784.611 103.426 784.611 99.5511C784.611 95.6759 781.925 92.5344 778.611 92.5344C775.297 92.5344 772.611 95.6759 772.611 99.5511C772.611 103.426 775.297 106.568 778.611 106.568Z" fill="#4FD1E5" stroke="#4FD1E5" stroke-width="3"/>
<path id="Vector_8" d="M817.611 187.761C820.925 187.761 823.611 184.62 823.611 180.744C823.611 176.869 820.925 173.728 817.611 173.728C814.297 173.728 811.611 176.869 811.611 180.744C811.611 184.62 814.297 187.761 817.611 187.761Z" fill="#4FD1E5" stroke="#4FD1E5" stroke-width="3"/>
<path id="Vector_9" d="M830.611 209.814C833.925 209.814 836.611 206.672 836.611 202.797C836.611 198.922 833.925 195.78 830.611 195.78C827.297 195.78 824.611 198.922 824.611 202.797C824.611 206.672 827.297 209.814 830.611 209.814Z" fill="#4FD1E5" stroke="#4FD1E5" stroke-width="3"/>
<path id="Vector_10" d="M708.111 280.983C711.148 280.983 713.611 277.842 713.611 273.966C713.611 270.091 711.148 266.95 708.111 266.95C705.073 266.95 702.611 270.091 702.611 273.966C702.611 277.842 705.073 280.983 708.111 280.983Z" fill="#4FD1E5" stroke="#4FD1E5" stroke-width="3"/>
<path id="Vector_11" d="M607.111 321.079C610.148 321.079 612.611 317.937 612.611 314.062C612.611 310.187 610.148 307.045 607.111 307.045C604.073 307.045 601.611 310.187 601.611 314.062C601.611 317.937 604.073 321.079 607.111 321.079Z" fill="#4FD1E5" stroke="#4FD1E5" stroke-width="3"/>
<path id="Vector_12" d="M506.111 332.105C509.148 332.105 511.611 328.963 511.611 325.088C511.611 321.213 509.148 318.071 506.111 318.071C503.073 318.071 500.611 321.213 500.611 325.088C500.611 328.963 503.073 332.105 506.111 332.105Z" fill="#4FD1E5" stroke="#4FD1E5" stroke-width="3"/>
<path id="Vector_13" d="M545.111 112.582C548.148 112.582 550.611 109.441 550.611 105.565C550.611 101.69 548.148 98.5487 545.111 98.5487C542.073 98.5487 539.611 101.69 539.611 105.565C539.611 109.441 542.073 112.582 545.111 112.582Z" fill="#4FD1E5" stroke="#4FD1E5" stroke-width="3"/>
<path id="Vector_14" d="M429.111 302.033C432.148 302.033 434.611 299.116 434.611 295.518C434.611 291.919 432.148 289.002 429.111 289.002C426.073 289.002 423.611 291.919 423.611 295.518C423.611 299.116 426.073 302.033 429.111 302.033Z" fill="#4FD1E5" stroke="#4FD1E5" stroke-width="3"/>
<path id="Vector_15" d="M666.111 354.157C669.148 354.157 671.611 351.24 671.611 347.642C671.611 344.043 669.148 341.126 666.111 341.126C663.073 341.126 660.611 344.043 660.611 347.642C660.611 351.24 663.073 354.157 666.111 354.157Z" fill="#4FD1E5" stroke="#4FD1E5" stroke-width="3"/>
<path id="Vector_16" d="M831.111 133.632C834.148 133.632 836.611 130.491 836.611 126.616C836.611 122.74 834.148 119.599 831.111 119.599C828.073 119.599 825.611 122.74 825.611 126.616C825.611 130.491 828.073 133.632 831.111 133.632Z" fill="#4FD1E5" stroke="#4FD1E5" stroke-width="3"/>
<path id="Vector_17" d="M671.111 70.4819C674.148 70.4819 676.611 67.3404 676.611 63.4652C676.611 59.59 674.148 56.4485 671.111 56.4485C668.073 56.4485 665.611 59.59 665.611 63.4652C665.611 67.3404 668.073 70.4819 671.111 70.4819Z" fill="#4FD1E5" stroke="#4FD1E5" stroke-width="3"/>
<path id="Vector_18" d="M761.111 77.4986C764.148 77.4986 766.611 74.3571 766.611 70.4819C766.611 66.6067 764.148 63.4652 761.111 63.4652C758.073 63.4652 755.611 66.6067 755.611 70.4819C755.611 74.3571 758.073 77.4986 761.111 77.4986Z" fill="#4FD1E5" stroke="#4FD1E5" stroke-width="3"/>
<path id="Vector_19" d="M604.111 137.642C607.148 137.642 609.611 134.5 609.611 130.625C609.611 126.75 607.148 123.608 604.111 123.608C601.073 123.608 598.611 126.75 598.611 130.625C598.611 134.5 601.073 137.642 604.111 137.642Z" fill="#4FD1E5" stroke="#4FD1E5" stroke-width="3"/>
<path id="Vector_20" d="M769.111 295.017C772.148 295.017 774.611 291.875 774.611 288C774.611 284.125 772.148 280.983 769.111 280.983C766.073 280.983 763.611 284.125 763.611 288C763.611 291.875 766.073 295.017 769.111 295.017Z" fill="#4FD1E5" stroke="#4FD1E5" stroke-width="3"/>
</g>
<g id="Lineas" opacity="0.6">
<path id="Vector_21" d="M505.111 326.091L665.111 347.642" stroke="#4FD1E5" stroke-width="1.5"/>
<path id="Vector_22" d="M534.611 361.174L505.111 326.091" stroke="#4FD1E5" stroke-width="1.5"/>
<path id="Vector_23" d="M670.611 63.4653L607.111 131.126" stroke="#4FD1E5" stroke-width="1.5"/>
<path id="Vector_24" d="M670.611 63.4653L700.111 102.057" stroke="#4FD1E5" stroke-width="1.5"/>
<path id="Vector_25" d="M544.611 106.067L607.111 131.126" stroke="#4FD1E5" stroke-width="1.5"/>
<path id="Vector_26" d="M534.611 361.174L607.111 313.561" stroke="#4FD1E5" stroke-width="1.5"/>
<path id="Vector_27" d="M665.111 348.143L607.111 313.561" stroke="#4FD1E5" stroke-width="1.5"/>
<path id="Vector_28" d="M544.611 106.067L493.611 189.766" stroke="#4FD1E5" stroke-width="1.5"/>
<path id="Vector_29" d="M443.111 196.282L493.611 189.766" stroke="#4FD1E5" stroke-width="1.5"/>
<path id="Vector_30" d="M449.111 235.375L443.611 196.783" stroke="#4FD1E5" stroke-width="1.5"/>
<path id="Vector_31" d="M708.611 273.465L665.611 347.642" stroke="#4FD1E5" stroke-width="1.5"/>
<path id="Vector_32" d="M781.111 224.849L665.611 347.642" stroke="#4FD1E5" stroke-width="1.5"/>
<path id="Vector_33" d="M781.111 224.849L769.111 289.002" stroke="#4FD1E5" stroke-width="1.5"/>
<path id="Vector_34" d="M708.611 273.465L769.111 289.002" stroke="#4FD1E5" stroke-width="1.5"/>
<path id="Vector_35" d="M781.111 224.849L829.611 202.296" stroke="#4FD1E5" stroke-width="1.5"/>
<path id="Vector_36" d="M817.611 181.747L830.611 203.298" stroke="#4FD1E5" stroke-width="1.5"/>
<path id="Vector_37" d="M671.611 62.4629L778.111 99.05" stroke="#4FD1E5" stroke-width="1.5"/>
<path id="Vector_38" d="M761.611 70.4819L778.111 99.05" stroke="#4FD1E5" stroke-width="1.5"/>
<path id="Vector_39" d="M699.111 103.059L761.611 70.4819" stroke="#4FD1E5" stroke-width="1.5"/>
<path id="Vector_40" d="M545.611 106.568L699.111 102.057" stroke="#4FD1E5" stroke-width="1.5"/>
</g>
<path id="Play" d="M584.936 181.579L617.122 261.434L657.539 199.652L584.936 181.579Z" fill="#4FD1E5" stroke="#4FD1E5" stroke-width="2.4"/>
<g id="Costuras">
<mask id="path-44-inside-1_3322_1836" fill="white">
<path d="M832.339 127.468C838.598 183.787 771.854 252.54 666.27 295.3C560.685 338.061 462.483 337.236 427.892 295.297C427.892 232.987 494.952 174.977 600.536 132.216C706.121 89.4556 798.098 84.0493 832.339 127.468Z"/>
</mask>
<path d="M832.339 127.468C838.598 183.787 771.854 252.54 666.27 295.3C560.685 338.061 462.483 337.236 427.892 295.297C427.892 232.987 494.952 174.977 600.536 132.216C706.121 89.4556 798.098 84.0493 832.339 127.468Z" stroke="#4FD1E5" stroke-width="2" mask="url(#path-44-inside-1_3322_1836)"/>
</g>
<g id="Pelota">
<mask id="path-45-inside-2_3322_1836" fill="white">
<path d="M832.057 126.743C860.513 197.344 791.922 298.749 684.976 342.061C578.03 385.373 456.066 365.547 427.609 294.946C399.152 224.345 474.979 129.704 581.925 86.3916C688.871 43.0795 803.6 56.1422 832.057 126.743Z"/>
</mask>
<path d="M832.057 126.743C860.513 197.344 791.922 298.749 684.976 342.061C578.03 385.373 456.066 365.547 427.609 294.946C399.152 224.345 474.979 129.704 581.925 86.3916C688.871 43.0795 803.6 56.1422 832.057 126.743Z" stroke="#4FD1E5" stroke-width="6" mask="url(#path-45-inside-2_3322_1836)"/>
</g>
</g>
</svg>
