<svg width="420" height="420" viewBox="0 0 420 420" fill="none" xmlns="http://www.w3.org/2000/svg">
<g id="TEXTO CONEXUS RUGBY">
<rect width="420" height="420" fill="#181E2F"/>
<path id="CONEXUS" d="M38.604 238.936C34.392 238.936 30.466 238.26 26.826 236.908C23.238 235.504 20.118 233.528 17.466 230.98C14.814 228.432 12.734 225.442 11.226 222.01C9.77 218.578 9.042 214.808 9.042 210.7C9.042 206.592 9.77 202.822 11.226 199.39C12.734 195.958 14.814 192.968 17.466 190.42C20.17 187.872 23.316 185.922 26.904 184.57C30.492 183.166 34.418 182.464 38.682 182.464C43.414 182.464 47.678 183.296 51.474 184.96C55.322 186.572 58.546 188.964 61.146 192.136L53.034 199.624C51.162 197.492 49.082 195.906 46.794 194.866C44.506 193.774 42.01 193.228 39.306 193.228C36.758 193.228 34.418 193.644 32.286 194.476C30.154 195.308 28.308 196.504 26.748 198.064C25.188 199.624 23.966 201.47 23.082 203.602C22.25 205.734 21.834 208.1 21.834 210.7C21.834 213.3 22.25 215.666 23.082 217.798C23.966 219.93 25.188 221.776 26.748 223.336C28.308 224.896 30.154 226.092 32.286 226.924C34.418 227.756 36.758 228.172 39.306 228.172C42.01 228.172 44.506 227.652 46.794 226.612C49.082 225.52 51.162 223.882 53.034 221.698L61.146 229.186C58.546 232.358 55.322 234.776 51.474 236.44C47.678 238.104 43.388 238.936 38.604 238.936ZM95.8365 238.936C91.5205 238.936 87.5165 238.234 83.8245 236.83C80.1845 235.426 77.0125 233.45 74.3085 230.902C71.6565 228.354 69.5765 225.364 68.0685 221.932C66.6125 218.5 65.8845 214.756 65.8845 210.7C65.8845 206.644 66.6125 202.9 68.0685 199.468C69.5765 196.036 71.6825 193.046 74.3865 190.498C77.0905 187.95 80.2625 185.974 83.9025 184.57C87.5425 183.166 91.4945 182.464 95.7585 182.464C100.074 182.464 104.026 183.166 107.614 184.57C111.255 185.974 114.401 187.95 117.053 190.498C119.757 193.046 121.863 196.036 123.371 199.468C124.879 202.848 125.633 206.592 125.633 210.7C125.633 214.756 124.879 218.526 123.371 222.01C121.863 225.442 119.757 228.432 117.053 230.98C114.401 233.476 111.255 235.426 107.614 236.83C104.026 238.234 100.1 238.936 95.8365 238.936ZM95.7585 228.172C98.2025 228.172 100.438 227.756 102.467 226.924C104.547 226.092 106.367 224.896 107.926 223.336C109.487 221.776 110.683 219.93 111.514 217.798C112.399 215.666 112.841 213.3 112.841 210.7C112.841 208.1 112.399 205.734 111.514 203.602C110.683 201.47 109.487 199.624 107.926 198.064C106.419 196.504 104.625 195.308 102.544 194.476C100.464 193.644 98.2025 193.228 95.7585 193.228C93.3145 193.228 91.0525 193.644 88.9725 194.476C86.9445 195.308 85.1505 196.504 83.5905 198.064C82.0305 199.624 80.8085 201.47 79.9245 203.602C79.0925 205.734 78.6765 208.1 78.6765 210.7C78.6765 213.248 79.0925 215.614 79.9245 217.798C80.8085 219.93 82.0045 221.776 83.5125 223.336C85.0725 224.896 86.8925 226.092 88.9725 226.924C91.0525 227.756 93.3145 228.172 95.7585 228.172ZM135.909 238V183.4H146.361L178.575 222.712H173.505V183.4H185.985V238H175.611L143.319 198.688H148.389V238H135.909ZM211.305 205.396H237.591V215.224H211.305V205.396ZM212.241 227.86H241.959V238H199.683V183.4H240.945V193.54H212.241V227.86ZM246.02 238L269.498 205.63V214.834L247.034 183.4H261.386L276.908 205.318L270.902 205.396L286.19 183.4H299.918L277.61 214.288V205.24L301.244 238H286.658L270.59 214.834H276.362L260.528 238H246.02ZM332.218 238.936C324.47 238.936 318.412 236.778 314.044 232.462C309.676 228.146 307.492 221.984 307.492 213.976V183.4H320.128V213.508C320.128 218.708 321.194 222.452 323.326 224.74C325.458 227.028 328.448 228.172 332.296 228.172C336.144 228.172 339.134 227.028 341.266 224.74C343.398 222.452 344.464 218.708 344.464 213.508V183.4H356.944V213.976C356.944 221.984 354.76 228.146 350.392 232.462C346.024 236.778 339.966 238.936 332.218 238.936ZM388.151 238.936C383.783 238.936 379.597 238.364 375.593 237.22C371.589 236.024 368.365 234.49 365.921 232.618L370.211 223.102C372.551 224.766 375.307 226.144 378.479 227.236C381.703 228.276 384.953 228.796 388.229 228.796C390.725 228.796 392.727 228.562 394.235 228.094C395.795 227.574 396.939 226.872 397.667 225.988C398.395 225.104 398.759 224.09 398.759 222.946C398.759 221.49 398.187 220.346 397.043 219.514C395.899 218.63 394.391 217.928 392.519 217.408C390.647 216.836 388.567 216.316 386.279 215.848C384.043 215.328 381.781 214.704 379.493 213.976C377.257 213.248 375.203 212.312 373.331 211.168C371.459 210.024 369.925 208.516 368.729 206.644C367.585 204.772 367.013 202.38 367.013 199.468C367.013 196.348 367.845 193.514 369.509 190.966C371.225 188.366 373.773 186.312 377.153 184.804C380.585 183.244 384.875 182.464 390.023 182.464C393.455 182.464 396.835 182.88 400.163 183.712C403.491 184.492 406.429 185.688 408.977 187.3L405.077 196.894C402.529 195.438 399.981 194.372 397.433 193.696C394.885 192.968 392.389 192.604 389.945 192.604C387.501 192.604 385.499 192.89 383.939 193.462C382.379 194.034 381.261 194.788 380.585 195.724C379.909 196.608 379.571 197.648 379.571 198.844C379.571 200.248 380.143 201.392 381.287 202.276C382.431 203.108 383.939 203.784 385.811 204.304C387.683 204.824 389.737 205.344 391.973 205.864C394.261 206.384 396.523 206.982 398.759 207.658C401.047 208.334 403.127 209.244 404.999 210.388C406.871 211.532 408.379 213.04 409.523 214.912C410.719 216.784 411.317 219.15 411.317 222.01C411.317 225.078 410.459 227.886 408.743 230.434C407.027 232.982 404.453 235.036 401.021 236.596C397.641 238.156 393.351 238.936 388.151 238.936Z" fill="white"/>
<path id="RUGBY" d="M252.23 284V252.5H265.19C267.98 252.5 270.365 252.95 272.345 253.85C274.355 254.75 275.9 256.04 276.98 257.72C278.06 259.4 278.6 261.395 278.6 263.705C278.6 266.015 278.06 268.01 276.98 269.69C275.9 271.34 274.355 272.615 272.345 273.515C270.365 274.385 267.98 274.82 265.19 274.82H255.47L258.08 272.165V284H252.23ZM272.84 284L264.875 272.57H271.13L279.14 284H272.84ZM258.08 272.795L255.47 270.005H264.92C267.5 270.005 269.435 269.45 270.725 268.34C272.045 267.23 272.705 265.685 272.705 263.705C272.705 261.695 272.045 260.15 270.725 259.07C269.435 257.99 267.5 257.45 264.92 257.45H255.47L258.08 254.57V272.795ZM297.925 284.45C293.605 284.45 290.215 283.235 287.755 280.805C285.325 278.375 284.11 274.865 284.11 270.275V252.5H289.96V270.05C289.96 273.29 290.65 275.645 292.03 277.115C293.44 278.585 295.42 279.32 297.97 279.32C300.52 279.32 302.485 278.585 303.865 277.115C305.245 275.645 305.935 273.29 305.935 270.05V252.5H311.695V270.275C311.695 274.865 310.465 278.375 308.005 280.805C305.575 283.235 302.215 284.45 297.925 284.45ZM333.838 284.45C331.378 284.45 329.113 284.06 327.043 283.28C325.003 282.47 323.218 281.345 321.688 279.905C320.158 278.435 318.973 276.71 318.133 274.73C317.293 272.75 316.873 270.59 316.873 268.25C316.873 265.91 317.293 263.75 318.133 261.77C318.973 259.79 320.158 258.08 321.688 256.64C323.248 255.17 325.063 254.045 327.133 253.265C329.203 252.455 331.468 252.05 333.928 252.05C336.598 252.05 338.998 252.485 341.128 253.355C343.288 254.225 345.103 255.5 346.573 257.18L342.883 260.78C341.653 259.55 340.318 258.65 338.878 258.08C337.468 257.48 335.908 257.18 334.198 257.18C332.548 257.18 331.018 257.45 329.608 257.99C328.198 258.53 326.983 259.295 325.963 260.285C324.943 261.275 324.148 262.445 323.578 263.795C323.038 265.145 322.768 266.63 322.768 268.25C322.768 269.84 323.038 271.31 323.578 272.66C324.148 274.01 324.943 275.195 325.963 276.215C326.983 277.205 328.183 277.97 329.563 278.51C330.943 279.05 332.473 279.32 334.153 279.32C335.713 279.32 337.213 279.08 338.653 278.6C340.123 278.09 341.518 277.25 342.838 276.08L346.168 280.445C344.518 281.765 342.598 282.77 340.408 283.46C338.248 284.12 336.058 284.45 333.838 284.45ZM340.633 279.68V267.89H346.168V280.445L340.633 279.68ZM353.119 284V252.5H367.879C371.659 252.5 374.539 253.25 376.519 254.75C378.499 256.22 379.489 258.2 379.489 260.69C379.489 262.37 379.099 263.81 378.319 265.01C377.539 266.18 376.489 267.095 375.169 267.755C373.879 268.385 372.469 268.7 370.939 268.7L371.749 267.08C373.519 267.08 375.109 267.41 376.519 268.07C377.929 268.7 379.039 269.63 379.849 270.86C380.689 272.09 381.109 273.62 381.109 275.45C381.109 278.15 380.074 280.25 378.004 281.75C375.934 283.25 372.859 284 368.779 284H353.119ZM358.969 279.41H368.419C370.609 279.41 372.289 279.05 373.459 278.33C374.629 277.61 375.214 276.455 375.214 274.865C375.214 273.305 374.629 272.165 373.459 271.445C372.289 270.695 370.609 270.32 368.419 270.32H358.519V265.775H367.249C369.289 265.775 370.849 265.415 371.929 264.695C373.039 263.975 373.594 262.895 373.594 261.455C373.594 259.985 373.039 258.89 371.929 258.17C370.849 257.45 369.289 257.09 367.249 257.09H358.969V279.41ZM393.668 284V271.535L394.973 275.135L381.293 252.5H387.548L398.528 270.725H395.018L406.088 252.5H411.848L398.168 275.135L399.518 271.535V284H393.668Z" fill="#4FD1E5"/>
</g>
</svg>
