<svg width="420" height="420" viewBox="0 0 420 420" fill="none" xmlns="http://www.w3.org/2000/svg">
<g id="TEXTO CONEXUS RUGBY">
<path id="CONEXUS" d="M35.26 235.84C31.48 235.84 27.9567 235.233 24.69 234.02C21.47 232.76 18.67 230.987 16.29 228.7C13.91 226.413 12.0433 223.73 10.69 220.65C9.38333 217.57 8.73 214.187 8.73 210.5C8.73 206.813 9.38333 203.43 10.69 200.35C12.0433 197.27 13.91 194.587 16.29 192.3C18.7167 190.013 21.54 188.263 24.76 187.05C27.98 185.79 31.5033 185.16 35.33 185.16C39.5767 185.16 43.4033 185.907 46.81 187.4C50.2633 188.847 53.1567 190.993 55.49 193.84L48.21 200.56C46.53 198.647 44.6633 197.223 42.61 196.29C40.5567 195.31 38.3167 194.82 35.89 194.82C33.6033 194.82 31.5033 195.193 29.59 195.94C27.6767 196.687 26.02 197.76 24.62 199.16C23.22 200.56 22.1233 202.217 21.33 204.13C20.5833 206.043 20.21 208.167 20.21 210.5C20.21 212.833 20.5833 214.957 21.33 216.87C22.1233 218.783 23.22 220.44 24.62 221.84C26.02 223.24 27.6767 224.313 29.59 225.06C31.5033 225.807 33.6033 226.18 35.89 226.18C38.3167 226.18 40.5567 225.713 42.61 224.78C44.6633 223.8 46.53 222.33 48.21 220.37L55.49 227.09C53.1567 229.937 50.2633 232.107 46.81 233.6C43.4033 235.093 39.5533 235.84 35.26 235.84ZM92.9225 235.84C89.0492 235.84 85.4558 235.21 82.1425 233.95C78.8758 232.69 76.0292 230.917 73.6025 228.63C71.2225 226.343 69.3558 223.66 68.0025 220.58C66.6958 217.5 66.0425 214.14 66.0425 210.5C66.0425 206.86 66.6958 203.5 68.0025 200.42C69.3558 197.34 71.2458 194.657 73.6725 192.37C76.0992 190.083 78.9458 188.31 82.2125 187.05C85.4792 185.79 89.0258 185.16 92.8525 185.16C96.7258 185.16 100.272 185.79 103.493 187.05C106.759 188.31 109.583 190.083 111.963 192.37C114.389 194.657 116.279 197.34 117.633 200.42C118.986 203.453 119.663 206.813 119.663 210.5C119.663 214.14 118.986 217.523 117.633 220.65C116.279 223.73 114.389 226.413 111.963 228.7C109.583 230.94 106.759 232.69 103.493 233.95C100.272 235.21 96.7492 235.84 92.9225 235.84ZM92.8525 226.18C95.0458 226.18 97.0525 225.807 98.8725 225.06C100.739 224.313 102.373 223.24 103.773 221.84C105.173 220.44 106.246 218.783 106.993 216.87C107.786 214.957 108.183 212.833 108.183 210.5C108.183 208.167 107.786 206.043 106.993 204.13C106.246 202.217 105.173 200.56 103.773 199.16C102.419 197.76 100.809 196.687 98.9425 195.94C97.0758 195.193 95.0458 194.82 92.8525 194.82C90.6592 194.82 88.6292 195.193 86.7625 195.94C84.9425 196.687 83.3325 197.76 81.9325 199.16C80.5325 200.56 79.4358 202.217 78.6425 204.13C77.8958 206.043 77.5225 208.167 77.5225 210.5C77.5225 212.787 77.8958 214.91 78.6425 216.87C79.4358 218.783 80.5092 220.44 81.8625 221.84C83.2625 223.24 84.8958 224.313 86.7625 225.06C88.6292 225.807 90.6592 226.18 92.8525 226.18ZM135.185 235V186H144.565L173.475 221.28H168.925V186H180.125V235H170.815L141.835 199.72H146.385V235H135.185ZM209.148 205.74H232.738V214.56H209.148V205.74ZM209.988 225.9H236.658V235H198.718V186H235.748V195.1H209.988V225.9ZM246.603 235L267.673 205.95V214.21L247.513 186H260.393L274.323 205.67L268.933 205.74L282.653 186H294.973L274.953 213.72V205.6L296.163 235H283.073L268.653 214.21H273.833L259.623 235H246.603ZM330.26 235.84C323.306 235.84 317.87 233.903 313.95 230.03C310.03 226.157 308.07 220.627 308.07 213.44V186H319.41V213.02C319.41 217.687 320.366 221.047 322.28 223.1C324.193 225.153 326.876 226.18 330.33 226.18C333.783 226.18 336.466 225.153 338.38 223.1C340.293 221.047 341.25 217.687 341.25 213.02V186H352.45V213.44C352.45 220.627 350.49 226.157 346.57 230.03C342.65 233.903 337.213 235.84 330.26 235.84ZM386.756 235.84C382.836 235.84 379.079 235.327 375.486 234.3C371.892 233.227 368.999 231.85 366.806 230.17L370.656 221.63C372.756 223.123 375.229 224.36 378.076 225.34C380.969 226.273 383.886 226.74 386.826 226.74C389.066 226.74 390.862 226.53 392.216 226.11C393.616 225.643 394.642 225.013 395.296 224.22C395.949 223.427 396.276 222.517 396.276 221.49C396.276 220.183 395.762 219.157 394.736 218.41C393.709 217.617 392.356 216.987 390.676 216.52C388.996 216.007 387.129 215.54 385.076 215.12C383.069 214.653 381.039 214.093 378.986 213.44C376.979 212.787 375.136 211.947 373.456 210.92C371.776 209.893 370.399 208.54 369.326 206.86C368.299 205.18 367.786 203.033 367.786 200.42C367.786 197.62 368.532 195.077 370.026 192.79C371.566 190.457 373.852 188.613 376.886 187.26C379.966 185.86 383.816 185.16 388.436 185.16C391.516 185.16 394.549 185.533 397.536 186.28C400.522 186.98 403.159 188.053 405.446 189.5L401.946 198.11C399.659 196.803 397.372 195.847 395.086 195.24C392.799 194.587 390.559 194.26 388.366 194.26C386.172 194.26 384.376 194.517 382.976 195.03C381.576 195.543 380.572 196.22 379.966 197.06C379.359 197.853 379.056 198.787 379.056 199.86C379.056 201.12 379.569 202.147 380.596 202.94C381.622 203.687 382.976 204.293 384.656 204.76C386.336 205.227 388.179 205.693 390.186 206.16C392.239 206.627 394.269 207.163 396.276 207.77C398.329 208.377 400.196 209.193 401.876 210.22C403.556 211.247 404.909 212.6 405.936 214.28C407.009 215.96 407.546 218.083 407.546 220.65C407.546 223.403 406.776 225.923 405.236 228.21C403.696 230.497 401.386 232.34 398.306 233.74C395.272 235.14 391.422 235.84 386.756 235.84Z" fill="white"/>
<path id="RUGBY" d="M251.76 282V254H263.28C265.76 254 267.88 254.4 269.64 255.2C271.427 256 272.8 257.147 273.76 258.64C274.72 260.133 275.2 261.907 275.2 263.96C275.2 266.013 274.72 267.787 273.76 269.28C272.8 270.747 271.427 271.88 269.64 272.68C267.88 273.453 265.76 273.84 263.28 273.84H254.64L256.96 271.48V282H251.76ZM270.08 282L263 271.84H268.56L275.68 282H270.08ZM256.96 272.04L254.64 269.56H263.04C265.333 269.56 267.053 269.067 268.2 268.08C269.373 267.093 269.96 265.72 269.96 263.96C269.96 262.173 269.373 260.8 268.2 259.84C267.053 258.88 265.333 258.4 263.04 258.4H254.64L256.96 255.84V272.04ZM297.058 282.4C293.218 282.4 290.204 281.32 288.018 279.16C285.858 277 284.778 273.88 284.778 269.8V254H289.978V269.6C289.978 272.48 290.591 274.573 291.818 275.88C293.071 277.187 294.831 277.84 297.098 277.84C299.364 277.84 301.111 277.187 302.338 275.88C303.564 274.573 304.178 272.48 304.178 269.6V254H309.298V269.8C309.298 273.88 308.204 277 306.018 279.16C303.858 281.32 300.871 282.4 297.058 282.4ZM333.66 282.4C331.474 282.4 329.46 282.053 327.62 281.36C325.807 280.64 324.22 279.64 322.86 278.36C321.5 277.053 320.447 275.52 319.7 273.76C318.954 272 318.58 270.08 318.58 268C318.58 265.92 318.954 264 319.7 262.24C320.447 260.48 321.5 258.96 322.86 257.68C324.247 256.373 325.86 255.373 327.7 254.68C329.54 253.96 331.554 253.6 333.74 253.6C336.114 253.6 338.247 253.987 340.14 254.76C342.06 255.533 343.674 256.667 344.98 258.16L341.7 261.36C340.607 260.267 339.42 259.467 338.14 258.96C336.887 258.427 335.5 258.16 333.98 258.16C332.514 258.16 331.154 258.4 329.9 258.88C328.647 259.36 327.567 260.04 326.66 260.92C325.754 261.8 325.047 262.84 324.54 264.04C324.06 265.24 323.82 266.56 323.82 268C323.82 269.413 324.06 270.72 324.54 271.92C325.047 273.12 325.754 274.173 326.66 275.08C327.567 275.96 328.634 276.64 329.86 277.12C331.087 277.6 332.447 277.84 333.94 277.84C335.327 277.84 336.66 277.627 337.94 277.2C339.247 276.747 340.487 276 341.66 274.96L344.62 278.84C343.154 280.013 341.447 280.907 339.5 281.52C337.58 282.107 335.634 282.4 333.66 282.4ZM339.7 278.16V267.68H344.62V278.84L339.7 278.16ZM355.479 282V254H368.599C371.959 254 374.519 254.667 376.279 256C378.039 257.307 378.919 259.067 378.919 261.28C378.919 262.773 378.572 264.053 377.879 265.12C377.185 266.16 376.252 266.973 375.079 267.56C373.932 268.12 372.679 268.4 371.319 268.4L372.039 266.96C373.612 266.96 375.025 267.253 376.279 267.84C377.532 268.4 378.519 269.227 379.239 270.32C379.985 271.413 380.359 272.773 380.359 274.4C380.359 276.8 379.439 278.667 377.599 280C375.759 281.333 373.025 282 369.399 282H355.479ZM360.679 277.92H369.079C371.025 277.92 372.519 277.6 373.559 276.96C374.599 276.32 375.119 275.293 375.119 273.88C375.119 272.493 374.599 271.48 373.559 270.84C372.519 270.173 371.025 269.84 369.079 269.84H360.279V265.8H368.039C369.852 265.8 371.239 265.48 372.199 264.84C373.185 264.2 373.679 263.24 373.679 261.96C373.679 260.653 373.185 259.68 372.199 259.04C371.239 258.4 369.852 258.08 368.039 258.08H360.679V277.92ZM396.203 282V270.92L397.363 274.12L385.202 254H390.763L400.523 270.2H397.403L407.243 254H412.363L400.203 274.12L401.403 270.92V282H396.203Z" fill="#4FD1E5"/>
</g>
</svg>
